<?xml version="1.0" encoding="utf-8"?>
<!-- Generator: Adobe Illustrator 17.1.0, SVG Export Plug-In . SVG Version: 6.00 Build 0)  -->
<!DOCTYPE svg PUBLIC "-//W3C//DTD SVG 1.1//EN" "http://www.w3.org/Graphics/SVG/1.1/DTD/svg11.dtd">
<svg version="1.1" id="Ebene_1" xmlns="http://www.w3.org/2000/svg" xmlns:xlink="http://www.w3.org/1999/xlink" x="0px" y="0px"
	 viewBox="0 0 413.9 141.7" enable-background="new 0 0 413.9 141.7" xml:space="preserve">
<g>
	<path fill="#FFFFFF" d="M136.6,72.9l-14.3-18.3h10.9l8.9,11.6l9-11.6h11.3l-14.7,18.3l17,21.5h-10.9l-11.7-14.9l-12,14.9h-11.2
		L136.6,72.9z"/>
	<path fill="#FFFFFF" d="M177.7,34.4v60.1h-9.2V34.4H177.7z"/>
	<path fill="#FFFFFF" d="M191.8,54.7l10.4,22.7L213.4,51l11.3,26.3L235,54.7h10.3l-20.8,42.8l-11.1-25.6l-11.2,25.6l-20.8-42.8
		H191.8z"/>
	<path fill="#FFFFFF" d="M247.6,39.6c0-1.6,0.6-3,1.8-4.2c1.2-1.2,2.6-1.8,4.2-1.8c1.7,0,3.1,0.6,4.2,1.8c1.2,1.1,1.8,2.5,1.8,4.2
		c0,1.7-0.6,3.1-1.8,4.2c-1.1,1.2-2.5,1.8-4.2,1.8c-1.7,0-3.1-0.6-4.2-1.8C248.2,42.7,247.6,41.3,247.6,39.6z M258.2,54.7v39.8H249
		V54.7H258.2z"/>
	<path fill="#FFFFFF" d="M267.3,54.7h9.2v3.7c3.2-3.2,6.8-4.8,10.9-4.8c4.6,0,8.2,1.5,10.8,4.4c2.2,2.5,3.4,6.5,3.4,12.1v24.4h-9.2
		V72.2c0-3.9-0.5-6.6-1.6-8.1c-1.1-1.5-3-2.3-5.8-2.3c-3.1,0-5.2,1-6.5,3c-1.3,2-1.9,5.5-1.9,10.4v19.2h-9.2V54.7z"/>
	<path fill="#FFFFFF" d="M349.2,93.5c0,1.9-0.1,3.5-0.2,5c-0.1,1.4-0.3,2.7-0.5,3.8c-0.7,3-1.9,5.6-3.8,7.7
		c-3.6,4.1-8.5,6.2-14.8,6.2c-5.3,0-9.7-1.4-13.1-4.3c-3.5-2.9-5.6-7-6.1-12.2h9.2c0.4,2,0.9,3.5,1.8,4.5c1.9,2.5,4.7,3.7,8.3,3.7
		c6.7,0,10.1-4.1,10.1-12.4V90c-3.6,3.7-7.9,5.6-12.6,5.6c-5.4,0-9.9-2-13.3-5.9c-3.5-4-5.2-8.9-5.2-14.9c0-5.8,1.6-10.7,4.9-14.8
		c3.5-4.3,8.1-6.5,13.8-6.5c5,0,9.2,1.9,12.5,5.6v-4.5h9.2V93.5z M340.4,74.7c0-3.9-1-7-3.1-9.3c-2.1-2.4-4.8-3.6-8-3.6
		c-3.5,0-6.2,1.3-8.3,3.9c-1.8,2.3-2.7,5.3-2.7,9c0,3.6,0.9,6.6,2.7,8.9c2,2.5,4.7,3.8,8.3,3.8s6.3-1.3,8.3-3.8
		C339.4,81.2,340.4,78.3,340.4,74.7z"/>
	<path fill="#FFFFFF" d="M381.4,61.5l-7.6,4c-1.2-2.5-2.7-3.7-4.5-3.7c-0.8,0-1.6,0.3-2.2,0.8c-0.6,0.6-0.9,1.3-0.9,2.1
		c0,1.5,1.8,3,5.3,4.5c4.9,2.1,8.2,4,9.8,5.8c1.7,1.8,2.5,4.2,2.5,7.1c0,3.8-1.4,7.1-4.2,9.6c-2.8,2.5-6.1,3.7-10,3.7
		c-6.7,0-11.4-3.3-14.2-9.8l7.8-3.6c1.1,1.9,1.9,3.1,2.5,3.6c1.1,1,2.5,1.6,4,1.6c3.1,0,4.7-1.4,4.7-4.2c0-1.6-1.2-3.2-3.6-4.6
		c-0.9-0.5-1.9-0.9-2.8-1.3c-0.9-0.4-1.9-0.9-2.8-1.3c-2.7-1.3-4.5-2.6-5.6-3.9c-1.4-1.7-2.1-3.8-2.1-6.4c0-3.5,1.2-6.3,3.6-8.6
		c2.4-2.3,5.4-3.4,8.8-3.4C375.1,53.6,378.9,56.2,381.4,61.5z"/>
</g>
<path fill-rule="evenodd" clip-rule="evenodd" fill="#FFFFFF" d="M19.8,50.5c16.8-3.5,40.1,9.8,50.1,28.6
	c1.5-22.2,19.9-51.4,35-60.4c-16.6,3.1-32.5,13-40.4,35.3C51.4,41.8,33.9,42,19.8,50.5z"/>
<path fill="#FFFFFF" d="M46.8,61.5c-3.7-0.9-7.4-2.3-11.1-3.9c0,2.1,0,4.1,0,6.2c0,2.1,0,4.1,0,6.2c3.7,1.6,7.4,3,11.1,3.8
	c3.7,0.8,7.4,1.2,11.1,1.4c0-2.1,0-4.1,0-6.2c0-1.1,0-2.2,0-3.3c-1.1-1.1-2.2-2.1-3.4-3.1C51.9,62.4,49.3,62.1,46.8,61.5z"/>
<path fill="#FFFFFF" d="M35.6,71.4c0,2.1,0,4.1,0,6.2c0,2.1,0,4.1,0,6.2c3.7,1.5,7.4,2.9,11.1,3.8c3.7,0.9,7.4,1.2,11.1,1.5
	c0-2.1,0-4.1,0-6.2c0-2.1,0-4.1,0-6.2c-3.7-0.2-7.5-0.5-11.1-1.4C43,74.3,39.4,72.9,35.6,71.4z"/>
<path fill="#FFFFFF" d="M35.6,85.1c0,2.1,0,4.1,0,6.2c0,2.1,0,4.1,0,6.2c3.7,1.5,7.4,2.9,11.1,3.7c3.7,0.9,7.4,1.3,11.1,1.5
	c0-2.1,0-4.1,0-6.2c0-2.1,0-4.1,0-6.2c-3.7-0.3-7.5-0.6-11.1-1.5C43,88,39.4,86.6,35.6,85.1z"/>
<path fill="#FFFFFF" d="M59.3,67.1c0,0.6,0,1.2,0,1.9c0,2.1,0,4.1,0,6.2c2.1-0.1,4.2-0.2,6.2-0.4C63.6,72.1,61.5,69.5,59.3,67.1z"/>
<g>
	<path fill="#FFFFFF" d="M70.5,89.6c-3.7,0.5-7.4,0.7-11.1,0.7c0,2.1,0,4.1,0,6.2c0,2.1,0,4.1,0,6.2c3.7,0,7.4-0.1,11.1-0.5
		c3.7-0.4,7.3-1.2,11-2.1V87.2C77.8,88.2,74.1,89.1,70.5,89.6z"/>
	<path fill="#FFFFFF" d="M94,52.5c-3.6,2.2-7.4,3.9-11.1,5.5v12.9c3.7-1.5,7.4-3,11.1-5.1c3.8-2.1,7.4-4.8,11.1-7.6
		c0-2.3,0-4.6,0-6.9c0-2.3,0-4.6,0-7C101.4,47.3,97.8,50.2,94,52.5z"/>
	<path fill="#FFFFFF" d="M94,80.7c3.8-2,7.4-4.4,11.1-7c0-2.3,0-4.6,0-7c0-2.3,0-4.6,0-7c-3.7,2.8-7.4,5.4-11.1,7.5
		c-3.6,2-7.4,3.6-11.1,5.1v12.9C86.6,84,90.4,82.6,94,80.7z"/>
	<path fill="#FFFFFF" d="M75.8,60.3c-1.7,4.5-3,9-4,13.6c3.2-0.6,6.4-1.5,9.6-2.5V58.6C79.6,59.2,77.7,59.8,75.8,60.3z"/>
	<path fill="#FFFFFF" d="M71.6,75.4c-0.4,2.4-0.8,4.8-1,7.2c-1.2-2.2-2.6-4.4-4-6.5c-2.4,0.2-4.8,0.4-7.2,0.4c0,2.1,0,4.1,0,6.2
		c0,2.1,0,4.1,0,6.2c3.7-0.1,7.4-0.2,11.1-0.7c3.7-0.5,7.3-1.4,11-2.4V72.9C78.2,73.9,74.9,74.8,71.6,75.4z"/>
	<path fill="#FFFFFF" d="M94,95.6c3.8-1.8,7.4-4,11.1-6.4c0-2.3,0-4.6,0-6.9c0-2.3,0-4.6,0-7c-3.7,2.6-7.4,5-11.1,6.9
		c-3.6,1.9-7.4,3.3-11.1,4.6v12.9C86.6,98.5,90.4,97.3,94,95.6z"/>
</g>
</svg>
